<svg xmlns="http://www.w3.org/2000/svg" xmlns:xlink="http://www.w3.org/1999/xlink" data-name="Ebene 2" width="114" height="114"><rect id="backgroundrect" width="100%" height="100%" x="0" y="0" fill="none" stroke="none" class=""/><defs><style>.cls-1{fill:url(#radial-gradient);}.cls-2{fill:#d51130;}.cls-3{fill:#fff;}.cls-4{fill:#1d1d1b;}</style><radialGradient id="radial-gradient" cx="252.63999938964844" cy="139.7899932861328" r="76.91999816894531" gradientUnits="userSpaceOnUse"><stop offset="0" stop-color="#f5cec5"/><stop offset="0.14" stop-color="#ea8b90"/><stop offset="0.29" stop-color="#df495c"/><stop offset="0.4" stop-color="#d8213c"/><stop offset="0.45" stop-color="#d51130"/><stop offset="0.57" stop-color="#ca112d"/><stop offset="0.77" stop-color="#ab1024"/><stop offset="1" stop-color="#821018"/></radialGradient></defs><title>siblik-logo-quer_4C_2D</title><g class="currentLayer"><title>Layer 1</title><path class="cls-1" d="M106.2099966430664,56.900001912117006 a48.78,48.78 0 1 1 -48.78,-48.78 A48.78,48.78 0 0 1 106.2099966430664,56.900001912117006 z" id="svg_1"/><path class="cls-2" d="M113.99999664306642,57.000001912117 a57,57 0 1 1 -57,-57 A57,57 0 0 1 113.99999664306642,57.000001912117 z" id="svg_2"/><path class="cls-3" d="M56.969996643066395,6.230001912117004 a50.77,50.77 0 1 0 50.77,50.77 A50.77,50.77 0 0 0 56.969996643066395,6.230001912117004 zm0,97.43 a46.66,46.66 0 1 1 46.66,-46.66 A46.66,46.66 0 0 1 56.969996643066395,103.660001912117 z" id="svg_3"/><rect class="cls-3" x="11.909989356994629" y="69.70000374317169" width="50.150001525878906" height="4.150000095367432" id="svg_4"/><rect class="cls-3" x="52.37998962402344" y="40.06000053882599" width="50.150001525878906" height="4.150000095367432" id="svg_5"/></g></svg>