<svg id="Ebene_2" data-name="Ebene 2" xmlns="http://www.w3.org/2000/svg" xmlns:xlink="http://www.w3.org/1999/xlink" viewBox="0 0 432.65 114.05"><defs><style>.cls-1{fill:url(#radial-gradient);}.cls-2{fill:#d51130;}.cls-3{fill:#fff;}.cls-4{fill:#1d1d1b;}</style><radialGradient id="radial-gradient" cx="252.64" cy="139.79" r="76.92" gradientUnits="userSpaceOnUse"><stop offset="0" stop-color="#f5cec5"/><stop offset="0.14" stop-color="#ea8b90"/><stop offset="0.29" stop-color="#df495c"/><stop offset="0.4" stop-color="#d8213c"/><stop offset="0.45" stop-color="#d51130"/><stop offset="0.57" stop-color="#ca112d"/><stop offset="0.77" stop-color="#ab1024"/><stop offset="1" stop-color="#821018"/></radialGradient></defs><title>siblik-logo-quer_4C_2D</title><path class="cls-1" d="M321.94,171.53a48.78,48.78,0,1,1-48.78-48.78A48.78,48.78,0,0,1,321.94,171.53Z" transform="translate(-215.68 -114.6)"/><path class="cls-2" d="M329.73,171.63a57,57,0,1,1-57-57A57,57,0,0,1,329.73,171.63Z" transform="translate(-215.68 -114.6)"/><path class="cls-3" d="M272.7,120.86a50.77,50.77,0,1,0,50.77,50.77A50.77,50.77,0,0,0,272.7,120.86Zm0,97.43a46.66,46.66,0,1,1,46.66-46.66A46.66,46.66,0,0,1,272.7,218.29Z" transform="translate(-215.68 -114.6)"/><rect class="cls-3" x="11.96" y="69.73" width="50.15" height="4.15"/><rect class="cls-3" x="52.43" y="40.09" width="50.15" height="4.15"/><path class="cls-4" d="M348,206.31h4.29l3.05,11.5h.05l3.23-11.5h4.29l3.22,11.5h0l3.05-11.5h4.29l-5,15.78h-4.42l-3.32-11.23h0l-3.32,11.23H353Z" transform="translate(-215.68 -114.6)"/><path class="cls-4" d="M374.74,206h3.89v2.74h-3.89Zm0,4.2h3.89v11.85h-3.89Z" transform="translate(-215.68 -114.6)"/><path class="cls-4" d="M381.28,210.24H385v2.33h0c1.41-1.82,2.52-2.64,4.73-2.64a8.37,8.37,0,0,1,1.41.11v3.65a7.79,7.79,0,0,0-2.14-.35c-2.66,0-3.92,1.35-3.92,3.65v5.1h-3.89Z" transform="translate(-215.68 -114.6)"/><path class="cls-4" d="M404.54,218.42c.17,1,.88,1.68,2.89,1.68,1.77,0,2.81-.42,2.81-1.28,0-.66-.33-.93-2.21-1.19l-3.54-.49c-2.47-.33-3.89-1.1-3.89-3.36,0-3.21,3.25-4,6.48-4,5.46,0,6.74,1.79,7,4H409.8c-.22-1.21-1.5-1.57-2.63-1.57s-2.54.09-2.54,1.26c0,.56.28.93,2,1.11l2.7.29c4,.42,5.24,1.59,5.24,3.64,0,3.52-3.93,4-7.32,4-4.49,0-6.76-1.31-7-4.12Z" transform="translate(-215.68 -114.6)"/><path class="cls-4" d="M427,214.62c-.47-1.57-1.66-2.08-3.23-2.08-2.41,0-3.8,1.31-3.8,3.63s1.39,3.62,3.8,3.62a3,3,0,0,0,3.23-2.4h4c-.71,4.2-3.71,5.15-7.58,5.15-4.47,0-7.5-1.9-7.5-6.37s3.14-6.37,7.83-6.37c3,0,6.52.91,7.25,4.82Z" transform="translate(-215.68 -114.6)"/><path class="cls-4" d="M432.87,206h3.89V212h.05c.57-1,2.43-2,4.71-2,2,0,5.08.78,5.08,4.27v7.89h-3.89v-6.72c0-1.63-.86-2.43-2.61-2.43s-3.34.91-3.34,3.43v5.72h-3.89Z" transform="translate(-215.68 -114.6)"/><path class="cls-4" d="M449.29,213.87c.47-3.65,3.83-4.07,7-4.07,5.58,0,6.77,1.81,6.77,4v5.89a5.76,5.76,0,0,0,.44,2.38h-3.89a5.68,5.68,0,0,1-.27-1.26c-1.32,1.33-3.8,1.71-5.54,1.71-3.1,0-5.27-1.09-5.27-3.85s2.55-3.49,4.91-3.65l4.14-.29c1.19-.08,1.59-.28,1.59-1.23s-.8-1.42-3.05-1.42c-1.66,0-2.52.13-3.08,1.77Zm10,2.45a6.15,6.15,0,0,1-2.3.51l-2.25.2c-1.37.11-2.06.49-2.06,1.55s1,1.66,2.45,1.66c2,0,4.16-1,4.16-2.94Z" transform="translate(-215.68 -114.6)"/><path class="cls-4" d="M465.63,206h3.89v16.05h-3.89Z" transform="translate(-215.68 -114.6)"/><path class="cls-4" d="M473.43,206.57h3.89v3.67h3.14v2.61h-3.14v5.53c0,.93.29,1.24,1.31,1.24.68,0,1.28-.05,1.9-.09v2.61c-.73.09-2.19.22-3,.22-3.69,0-4.05-1.37-4.05-3.52v-6H471v-2.61h2.45Z" transform="translate(-215.68 -114.6)"/><path class="cls-4" d="M496.53,218.56c-1.12,2.8-3.82,4-7.38,4-4.69,0-7.83-1.9-7.83-6.37s3.14-6.37,7.83-6.37c5.13,0,7.6,2.59,7.6,7v.36h-11.4v0c0,1.13,1.15,2.85,3.8,2.85a3.4,3.4,0,0,0,3.23-1.54Zm-3.8-3.65v0c0-.64-.82-2.63-3.67-2.63-3.07,0-3.71,2.35-3.71,2.63v0Z" transform="translate(-215.68 -114.6)"/><path class="cls-4" d="M508.58,215.37c0-1.63-.86-2.43-2.61-2.43s-3.34.91-3.34,3.43v5.72h-3.89V210.24h3.76V212h0a6.19,6.19,0,0,1,4.85-2c2,0,5.08.78,5.08,4.27v7.89h-3.89Z" transform="translate(-215.68 -114.6)"/><path class="cls-4" d="M526.9,218.42c.18,1,.89,1.68,2.9,1.68,1.77,0,2.8-.42,2.8-1.28,0-.66-.33-.93-2.21-1.19l-3.53-.49c-2.48-.33-3.89-1.1-3.89-3.36,0-3.21,3.25-4,6.47-4,5.47,0,6.75,1.79,7,4h-4.29c-.22-1.21-1.5-1.57-2.63-1.57s-2.54.09-2.54,1.26c0,.56.29.93,2,1.11l2.69.29c4,.42,5.24,1.59,5.24,3.64,0,3.52-3.93,4-7.31,4-4.49,0-6.77-1.31-7-4.12Z" transform="translate(-215.68 -114.6)"/><path class="cls-4" d="M549.36,214.62c-.46-1.57-1.66-2.08-3.23-2.08-2.41,0-3.8,1.31-3.8,3.63s1.39,3.62,3.8,3.62a3,3,0,0,0,3.23-2.4h4c-.7,4.2-3.71,5.15-7.58,5.15-4.47,0-7.5-1.9-7.5-6.37s3.14-6.37,7.83-6.37c3,0,6.52.91,7.25,4.82Z" transform="translate(-215.68 -114.6)"/><path class="cls-4" d="M555.24,206h3.89V212h0c.58-1,2.43-2,4.71-2,2,0,5.09.78,5.09,4.27v7.89h-3.89v-6.72c0-1.63-.87-2.43-2.61-2.43s-3.34.91-3.34,3.43v5.72h-3.89Z" transform="translate(-215.68 -114.6)"/><path class="cls-4" d="M581.45,215.37c0-1.63-.86-2.43-2.61-2.43s-3.33.91-3.33,3.43v5.72h-3.9V210.24h3.76V212h0a6.15,6.15,0,0,1,4.84-2c2,0,5.08.78,5.08,4.27v7.89h-3.89Z" transform="translate(-215.68 -114.6)"/><path class="cls-4" d="M602.54,218.56c-1.13,2.8-3.82,4-7.38,4-4.69,0-7.83-1.9-7.83-6.37s3.14-6.37,7.83-6.37c5.13,0,7.6,2.59,7.6,7v.36H591.35v0c0,1.13,1.15,2.85,3.81,2.85a3.37,3.37,0,0,0,3.22-1.54Zm-3.8-3.65v0c0-.64-.82-2.63-3.67-2.63-3.08,0-3.72,2.35-3.72,2.63v0Z" transform="translate(-215.68 -114.6)"/><path class="cls-4" d="M604.75,206h3.89v16.05h-3.89Z" transform="translate(-215.68 -114.6)"/><path class="cls-4" d="M611.29,206h3.89v16.05h-3.89Z" transform="translate(-215.68 -114.6)"/><path class="cls-4" d="M632.38,218.56c-1.13,2.8-3.83,4-7.39,4-4.68,0-7.82-1.9-7.82-6.37s3.14-6.37,7.82-6.37c5.13,0,7.61,2.59,7.61,7v.36H621.19v0c0,1.13,1.15,2.85,3.8,2.85a3.39,3.39,0,0,0,3.23-1.54Zm-3.8-3.65v0c0-.64-.82-2.63-3.67-2.63-3.08,0-3.72,2.35-3.72,2.63v0Z" transform="translate(-215.68 -114.6)"/><path class="cls-4" d="M634.58,210.24h3.76v2.33h0c1.41-1.82,2.52-2.64,4.73-2.64a8.37,8.37,0,0,1,1.41.11v3.65a7.79,7.79,0,0,0-2.14-.35c-2.65,0-3.91,1.35-3.91,3.65v5.1h-3.9Z" transform="translate(-215.68 -114.6)"/><path class="cls-4" d="M644,218.34h4.29v3.75H644Z" transform="translate(-215.68 -114.6)"/><path class="cls-2" d="M364.07,170.15c-10.51-1.6-14.85-7.69-14.85-15.31,0-14.09,13.78-17.89,31.45-17.89,24.21,0,34.19,6.32,34.95,17.82h-25a4.47,4.47,0,0,0-3.27-4.34,17.16,17.16,0,0,0-6.7-1.15c-6.4,0-8.61,1.6-8.61,3.88,0,1.53.69,2.52,2.82,2.82l25.66,3.81c10.81,1.6,17.51,6.62,17.51,15.84,0,13.25-10.81,19.49-34.95,19.49-16.52,0-34.56-2.28-34.64-18.27h25.89a4.19,4.19,0,0,0,2.28,3.88c1.6.76,4,1.14,7.31,1.14,6.7,0,8.53-1.83,8.53-4.41,0-1.6-1-3.2-3.88-3.66Z" transform="translate(-215.68 -114.6)"/><rect class="cls-2" x="207.78" y="23.07" width="19.03" height="17.05"/><rect class="cls-2" x="207.78" y="45.34" width="19.03" height="34.05"/><rect class="cls-2" x="305.82" y="23.12" width="19.03" height="56.27"/><rect class="cls-2" x="332.34" y="23.2" width="19.04" height="16.92"/><rect class="cls-2" x="332.34" y="45.33" width="19.04" height="34.05"/><polygon class="cls-2" points="387.77 58.52 380.68 64.77 380.68 79.39 359.21 79.39 359.21 23.06 380.68 23.06 380.68 44.21 402.66 23.06 431.14 23.06 404.82 46.03 431.17 79.39 402.61 79.39 387.77 58.52"/><path class="cls-2" d="M507.82,163.91v-.15c4.11-1.6,6.47-5.78,6.47-10.58,0-8.68-4.95-15.51-16.07-15.51H449.34V194h46.52c15.92,0,21.25-7,21.25-17.67C517.11,172.29,514.82,165.74,507.82,163.91Zm-12.85,15H466.22v-5.23H495ZM495,160H466.22v-5.2H495Z" transform="translate(-215.68 -114.6)"/></svg>